<svg xmlns="http://www.w3.org/2000/svg" width="22" height="22" viewBox="0 0 22 22"><defs><style>.a{fill:none;}</style></defs><g transform="translate(0.301 0.301)"><rect class="a" width="22" height="22" transform="translate(-0.301 -0.301)"/><path d="M9,18a8.1,8.1,0,1,1,8.1-8.1A8.107,8.107,0,0,1,9,18ZM9,3.6a6.3,6.3,0,1,0,6.3,6.3A6.3,6.3,0,0,0,9,3.6ZM7.544,13.07a.435.435,0,0,1-.315-.136L5.088,10.8a.451.451,0,0,1,0-.639l.477-.477a.43.43,0,0,1,.629,0l1.35,1.34,4.264-4.265a.449.449,0,0,1,.629,0l.477.477a.45.45,0,0,1,0,.638L7.86,12.934A.435.435,0,0,1,7.544,13.07Zm9.662-8.559H17.2a.215.215,0,0,1-.153-.063L13.554.956A.217.217,0,0,1,13.49.794a.251.251,0,0,1,.081-.171A2.706,2.706,0,0,1,15.3,0H15.3A2.7,2.7,0,0,1,17.377,4.43.258.258,0,0,1,17.206,4.511ZM.806,4.5H.8a.251.251,0,0,1-.17-.072A2.7,2.7,0,0,1,4.423.623.254.254,0,0,1,4.5.794.213.213,0,0,1,4.45.956L.959,4.438A.212.212,0,0,1,.806,4.5Z" transform="translate(1.699 1.699)"/></g></svg>