<svg xmlns="http://www.w3.org/2000/svg" width="22" height="22" viewBox="0 0 22 22"><defs><style>.a{fill:none;}.b{fill:#fe4b4b;}</style></defs><g transform="translate(-0.504 -0.032)"><rect class="a" width="22" height="22" transform="translate(0.504 0.032)"/><path class="b" d="M.208,6.359A.71.71,0,0,1,0,5.857V5.5A.729.729,0,0,1,.208,5L5.074.14a.473.473,0,0,1,.672,0l.672.672a.464.464,0,0,1,0,.663l-4.212,4.2,4.212,4.2a.473.473,0,0,1,0,.672l-.672.663a.473.473,0,0,1-.672,0Z" transform="translate(7.482 5.59)"/></g></svg>