<svg xmlns="http://www.w3.org/2000/svg" width="17" height="17" viewBox="0 0 17 17"><defs><style>.a{fill:none;}.b{fill:#557ae0;}</style></defs><g transform="translate(-0.289 -0.289)"><rect class="a" width="17" height="17" transform="translate(0.289 0.289)"/><path class="b" d="M5.6,11A1.375,1.375,0,1,1,7,9.625,1.389,1.389,0,0,1,5.6,11ZM1.4,11a1.375,1.375,0,1,1,0-2.75A1.375,1.375,0,1,1,1.4,11ZM5.6,6.875A1.375,1.375,0,1,1,7,5.5,1.389,1.389,0,0,1,5.6,6.875Zm-4.2,0a1.375,1.375,0,1,1,0-2.75,1.375,1.375,0,1,1,0,2.75ZM5.6,2.75A1.389,1.389,0,0,1,4.2,1.375a1.4,1.4,0,0,1,2.8,0A1.389,1.389,0,0,1,5.6,2.75Zm-4.2,0A1.389,1.389,0,0,1,0,1.375,1.389,1.389,0,0,1,1.4,0,1.389,1.389,0,0,1,2.8,1.375,1.389,1.389,0,0,1,1.4,2.75Z" transform="translate(5.289 2.289)"/></g></svg>