<svg xmlns="http://www.w3.org/2000/svg" width="30" height="30" viewBox="0 0 30 30"><defs><style>.a{fill:#00b8a9;}</style></defs><path class="a" d="M20.353,3.274a9.752,9.752,0,0,0-9.647,9.832,9.935,9.935,0,0,0,.5,3.112L5.75,24.655l4.664-3.134L0,33.274,13.947,20.437a9.677,9.677,0,0,0,1.3,1L7.33,31.321l10.428-8.678-.1-.1a9.474,9.474,0,0,0,2.7.4A9.753,9.753,0,0,0,30,13.106,9.753,9.753,0,0,0,20.353,3.274Zm-4.837,12.22a2.469,2.469,0,0,0-1.995,1.03,7.828,7.828,0,0,1,0-6.837,2.469,2.469,0,0,0,1.995,1.03,2.518,2.518,0,0,0,2.494-2.541A2.548,2.548,0,0,0,17,6.143a7.426,7.426,0,0,1,6.708,0A2.546,2.546,0,0,0,22.7,8.176a2.518,2.518,0,0,0,2.495,2.541,2.466,2.466,0,0,0,1.994-1.031,7.824,7.824,0,0,1,0,6.837,2.467,2.467,0,0,0-1.994-1.031A2.518,2.518,0,0,0,22.7,18.035a2.547,2.547,0,0,0,1.011,2.034,7.425,7.425,0,0,1-6.708,0,2.546,2.546,0,0,0,1.011-2.032A2.517,2.517,0,0,0,15.516,15.494Z" transform="translate(0 -3.274)"/><path class="a" d="M209.881,86.282a2.641,2.641,0,1,1-2.641,2.641A2.641,2.641,0,0,1,209.881,86.282Z" transform="translate(-189.591 -79.05)"/></svg>