<svg xmlns="http://www.w3.org/2000/svg" width="22" height="22" viewBox="0 0 22 22"><defs><style>.a{fill:none;}.b{fill:#fe4b4b;}</style></defs><g transform="translate(-0.317 -0.317)"><rect class="a" width="22" height="22" transform="translate(0.317 0.317)"/><path class="b" d="M9.5,19A9.5,9.5,0,1,1,19,9.5,9.511,9.511,0,0,1,9.5,19Zm0-17.1a7.6,7.6,0,1,0,7.6,7.6A7.609,7.609,0,0,0,9.5,1.9ZM7.363,13.676a.712.712,0,0,1-.712-.708V6.033a.712.712,0,0,1,1.093-.6L13.3,8.892a.722.722,0,0,1,0,1.216L7.743,13.566A.714.714,0,0,1,7.363,13.676Z" transform="translate(1.317 1.317)"/></g></svg>