<svg xmlns="http://www.w3.org/2000/svg" width="12" height="12" viewBox="0 0 12 12"><defs><style>.a{fill:none;}.b{fill:#a0a3a0;}</style></defs><g transform="translate(-0.441 -0.44)"><rect class="a" width="12" height="12" transform="translate(0.441 0.44)"/><path class="b" d="M5.5,11A5.5,5.5,0,1,1,11,5.5,5.506,5.506,0,0,1,5.5,11Zm0-9.9A4.4,4.4,0,1,0,9.9,5.5,4.405,4.405,0,0,0,5.5,1.1ZM7.494,8.06a.28.28,0,0,1-.2-.079l-2.2-2.2a.293.293,0,0,1-.083-.193V2.475A.276.276,0,0,1,5.291,2.2h.418a.276.276,0,0,1,.275.275V5.3l2,2a.279.279,0,0,1,0,.391l-.292.292A.278.278,0,0,1,7.494,8.06Z" transform="translate(1.441 1.44)"/></g></svg>